<svg width="208" height="131" viewBox="0 0 208 131" fill="none" xmlns="http://www.w3.org/2000/svg">
<path d="M5.184 73.6C2.688 72.384 1.44 70.176 1.44 66.976C1.44 63.776 2.72 61.536 5.28 60.256C27.232 47.264 39.84 39.776 43.104 37.792C46.368 35.808 48.32 34.72 48.96 34.528C49.664 34.208 50.496 34.048 51.456 34.048C53.184 34.048 54.976 35.616 56.832 38.752C58.048 40.736 58.656 42.24 58.656 43.264C58.656 44.224 58.432 45.056 57.984 45.76C57.408 46.784 56.096 47.968 54.048 49.312C34.976 60.576 25.056 66.464 24.288 66.976L54.048 84.64C55.264 85.344 56.128 85.92 56.64 86.368C58.048 87.52 58.752 88.768 58.752 90.112C58.752 91.392 58.176 92.96 57.024 94.816C55.936 96.608 54.944 97.888 54.048 98.656C53.152 99.424 52.224 99.808 51.264 99.808C49.984 99.808 48.32 99.2 46.272 97.984L5.184 73.6Z" fill="#E4E4E7"/>
<path d="M201.816 60.256C204.376 61.536 205.656 63.776 205.656 66.976C205.656 70.176 204.408 72.384 201.912 73.6L160.92 97.984C157.656 100.096 155.032 100.32 153.048 98.656C152.152 97.888 151.224 96.736 150.264 95.2C148.984 93.088 148.344 91.552 148.344 90.592C148.344 89.632 148.536 88.8 148.92 88.096C149.624 87.008 151 85.856 153.048 84.64L182.904 66.976L153.144 49.312C151.992 48.608 151.128 48.032 150.552 47.584C149.144 46.368 148.44 45.056 148.44 43.648C148.44 42.368 148.984 40.832 150.072 39.04C152.056 35.712 153.912 34.048 155.64 34.048C157.176 34.048 158.904 34.656 160.824 35.872L201.816 60.256Z" fill="#E4E4E7"/>
<path d="M107.41 62.3301L108.87 61.6795C110.665 61.0742 111.89 60.8404 112.548 60.978C114.005 61.2829 115.303 62.9278 116.444 65.9128C117.133 67.7735 117.375 69.1971 117.168 70.1838C116.962 71.1704 116.461 71.9237 115.665 72.4438C114.917 72.9737 114.066 73.4086 113.112 73.7484C112.158 74.0882 111.233 74.4094 110.336 74.7121C109.486 75.0245 107.784 75.3059 105.23 75.5561C102.677 75.8063 100.273 75.6954 98.0177 75.2234C95.8095 74.7612 93.6134 74.0073 91.4293 72.9617C89.302 71.8789 87.1594 70.4006 85.0015 68.5268C82.9004 66.6159 81.0932 64.4722 79.58 62.0958C78.0765 59.6724 77.0151 56.7775 76.3956 53.4112C75.8329 50.0077 75.9351 46.4737 76.7021 42.8091C77.4691 39.1445 78.7731 35.9601 80.6141 33.2559C82.465 30.5048 84.5317 28.3627 86.8141 26.8298C89.1534 25.2597 91.6822 24.0726 94.4006 23.2684C99.5358 21.6951 104.429 21.3952 109.08 22.3687C111.288 22.8309 113.446 23.6503 115.554 24.8271C117.718 25.9666 119.314 27.0117 120.341 27.9623L121.826 29.3029C122.564 29.9967 123.133 30.5572 123.534 30.9844C124.549 32.2267 124.924 33.4821 124.658 34.7506C124.402 35.9722 123.639 37.1609 122.367 38.3169C120.004 40.4704 118.094 41.3948 116.637 41.0899C115.792 40.9129 114.702 40.1454 113.368 38.7873C111.729 36.7769 109.265 35.4275 105.976 34.7392C102.922 34.1 99.6943 34.5277 96.2919 36.0224C94.6661 36.761 93.1867 37.9716 91.8537 39.6542C90.5208 41.3368 89.6035 43.3762 89.102 45.7723C88.6103 48.1214 88.6377 50.3339 89.184 52.4098C89.7303 54.4858 90.6185 56.2165 91.8488 57.6019C94.282 60.2689 97.0491 61.927 100.15 62.576C101.606 62.8808 103.008 62.978 104.355 62.8677C105.749 62.7672 106.768 62.588 107.41 62.3301Z" fill="#E4E4E7"/>
<path d="M126.347 99.0508L127.679 98.1666C129.348 97.2716 130.518 96.8373 131.189 96.8637C132.676 96.9223 134.23 98.3286 135.851 101.083C136.84 102.803 137.315 104.167 137.275 105.174C137.235 106.181 136.866 107.007 136.168 107.652C135.518 108.299 134.751 108.869 133.867 109.363C132.983 109.856 132.124 110.327 131.29 110.774C130.503 111.224 128.872 111.784 126.396 112.455C123.919 113.126 121.53 113.416 119.228 113.326C116.974 113.237 114.683 112.858 112.355 112.19C110.078 111.476 107.719 110.374 105.28 108.885C102.891 107.35 100.752 105.536 98.8652 103.444C96.98 101.304 95.4522 98.6262 94.2819 95.4097C93.1615 92.147 92.675 88.6452 92.8224 84.9041C92.9698 81.163 93.7265 77.8062 95.0926 74.8336C96.4605 71.8132 98.1425 69.3575 100.139 67.4666C102.184 65.5296 104.481 63.9388 107.028 62.6941C111.83 60.2893 116.605 59.1804 121.354 59.3675C123.608 59.4563 125.872 59.9058 128.146 60.7159C130.47 61.48 132.217 62.2454 133.388 63.012L135.075 64.0873C135.917 64.6489 136.572 65.107 137.038 65.4616C138.245 66.518 138.824 67.6937 138.773 68.9887C138.723 70.2357 138.168 71.5348 137.106 72.8861C135.133 75.4024 133.404 76.6312 131.917 76.5726C131.053 76.5386 129.851 75.9629 128.31 74.8453C126.36 73.1352 123.706 72.214 120.348 72.0818C117.231 71.9589 114.119 72.9172 111.012 74.9564C109.532 75.9549 108.274 77.3945 107.239 79.2753C106.204 81.156 105.639 83.3194 105.542 85.7655C105.448 88.1636 105.842 90.3409 106.726 92.2972C107.61 94.2535 108.773 95.8125 110.217 96.9742C113.059 99.1998 116.063 100.375 119.229 100.5C120.716 100.558 122.114 100.421 123.424 100.089C124.782 99.7578 125.757 99.4119 126.347 99.0508Z" fill="#E4E4E7"/>
</svg>
